<?xml version="1.0" standalone="no"?>
<!DOCTYPE svg PUBLIC "-//W3C//DTD SVG 20010904//EN"
 "http://www.w3.org/TR/2001/REC-SVG-20010904/DTD/svg10.dtd">
<svg version="1.0" xmlns="http://www.w3.org/2000/svg"
 width="400" height="400" viewBox="0 0 247 232"
 preserveAspectRatio="xMidYMid meet">
  <g transform="translate(0,232) scale(0.1,-0.1)"
     fill="#ffffff" stroke="none">
    <path d="M886 2215 c-98 -25 -200 -80 -271 -146 -83 -78 -132 -152 -169 -259
      -26 -75 -30 -98 -30 -195 1 -96 5 -121 30 -195 76 -218 259 -375 483 -414 29
      -5 32 -4 26 12 -4 9 -9 31 -12 48 -5 28 -11 33 -74 53 -167 54 -299 193 -344
      362 -20 72 -19 202 1 270 37 126 131 250 235 311 130 76 299 94 436 46 164
      -58 303 -208 337 -363 l7 -30 -25 27 c-14 15 -32 31 -39 35 -8 4 -27 32 -42
      61 -39 73 -122 151 -198 190 -312 155 -671 -70 -670 -419 1 -178 105 -341 265
      -414 94 -42 103 -42 116 3 7 22 12 42 12 44 0 3 -27 15 -59 27 -65 24 -148 91
      -186 152 -94 147 -64 345 69 467 80 72 145 95 261 90 79 -3 98 -8 153 -37 58
      -31 142 -108 142 -130 0 -5 -10 -11 -22 -13 -16 -2 -39 11 -75 43 -134 120
      -328 111 -447 -22 -53 -59 -76 -121 -76 -204 0 -84 23 -145 77 -205 49 -55 97
      -84 161 -98 54 -13 72 -1 72 48 0 36 -2 40 -25 40 -34 0 -94 26 -124 53 -34
      32 -71 115 -71 163 0 59 45 142 98 178 62 44 149 48 220 12 66 -33 87 -63 71
      -100 -15 -31 -25 -33 -34 -6 -12 37 -78 72 -135 72 -98 0 -167 -75 -158 -172
      7 -75 53 -125 131 -144 27 -6 27 -6 27 42 0 43 -3 49 -29 58 -18 7 -31 21 -35
      39 -16 63 67 111 110 64 17 -19 19 -39 22 -185 l3 -164 -39 -45 c-80 -91 -81
      -193 -1 -280 l40 -43 -1 -178 c-1 -98 -6 -186 -11 -196 -29 -55 -103 -36 -97
      25 2 22 10 35 26 42 18 8 22 18 22 58 0 49 0 49 -27 43 -61 -15 -112 -71 -119
      -132 -7 -52 29 -120 76 -146 43 -24 120 -20 157 8 52 39 63 76 63 221 l0 133
      30 0 30 0 0 -285 c0 -272 -1 -286 -20 -305 -24 -24 -38 -25 -68 -4 -33 23 -23
      94 13 94 11 0 15 12 15 40 0 54 -1 56 -30 52 -40 -5 -87 -48 -105 -95 -52
      -136 115 -256 229 -166 54 43 56 53 56 374 l0 295 30 0 30 0 0 -290 c0 -322 3
      -339 61 -381 47 -33 130 -34 176 -1 40 28 68 98 59 147 -8 39 -56 101 -87 110
      -10 3 -28 8 -39 11 -18 5 -20 1 -20 -43 0 -40 4 -50 23 -58 34 -15 36 -69 3
      -90 -14 -9 -34 -14 -44 -11 -38 12 -42 46 -42 331 l0 275 30 0 30 0 0 -127 c0
      -104 4 -136 19 -170 44 -97 188 -111 250 -24 64 89 18 209 -91 236 -27 7 -28
      6 -28 -39 0 -35 5 -48 20 -56 46 -25 46 -76 -1 -100 -16 -9 -26 -8 -45 5 l-24
      15 0 196 0 196 31 31 c40 40 59 85 59 141 0 58 -11 86 -53 133 l-34 38 -6 210
      c-4 142 -11 228 -21 265 -58 208 -216 370 -423 436 -70 22 -244 27 -317 9z
      m274 -1070 c49 -26 80 -105 40 -105 -49 0 -100 50 -100 99 0 25 20 27 60 6z
      m480 -14 c0 -39 -36 -79 -77 -87 -31 -6 -33 -5 -33 22 1 32 13 52 50 77 38 27
      60 22 60 -12z"/>
  </g>
</svg>
